<svg width="50" height="29" fill="none" xmlns="http://www.w3.org/2000/svg"><g clip-path="url('#clip0_637_1677')"><path d="M50 .03H.015v28.816H50V.029Z" fill="#fff"/><path d="m6.642 8.018-2.293 5.325h1.494l.43-1.065h2.455l.414 1.065h1.524L8.373 8.018H6.642Zm.843 1.227.755 1.864H6.746l.74-1.864ZM10.828 13.328V8.003l2.116.015 1.228 3.432 1.198-3.432h2.1v5.325H16.14V9.408l-1.405 3.92h-1.169l-1.42-3.92v3.92h-1.317ZM18.388 13.328V8.003h4.334v1.183h-3.003v.918h2.929v1.124h-2.93v.947h3.004v1.153h-4.334ZM23.491 8.018v5.325h1.331V11.45h.563l1.597 1.893h1.627l-1.745-1.967a1.62 1.62 0 0 0 1.464-1.628c0-1.124-.872-1.73-1.863-1.73H23.49ZM24.822 9.2h1.524c.37 0 .636.281.636.562 0 .355-.34.562-.606.562h-1.539V9.201h-.015ZM30.222 13.328H28.86V8.003h1.36v5.325ZM33.432 13.328h-.296c-1.42 0-2.278-1.124-2.278-2.633 0-1.553.858-2.677 2.648-2.677h1.465v1.257h-1.524c-.725 0-1.243.562-1.243 1.435 0 1.035.592 1.464 1.435 1.464h.355l-.562 1.154ZM36.331 8.018l-2.293 5.325h1.495l.428-1.065h2.456l.414 1.065h1.524l-2.293-5.325h-1.73Zm.843 1.227.755 1.864h-1.494l.74-1.864ZM40.503 13.328V8.003h1.686l2.16 3.343V8.018h1.331v5.325h-1.642L41.82 9.911v3.432h-1.317v-.015ZM9.734 20.917v-5.325h4.334v1.183h-3.003v.917h2.93v1.125h-2.93v.946h3.003v1.154H9.734ZM31.006 20.917v-5.325h4.334v1.183h-3.003v.917h2.914v1.125h-2.914v.946h3.003v1.154h-4.334ZM14.246 20.917l2.115-2.633-2.16-2.692h1.672l1.287 1.671 1.287-1.671h1.612l-2.13 2.662 2.115 2.663h-1.671l-1.258-1.642-1.227 1.642h-1.642ZM20.207 15.606v5.326h1.361v-1.686h1.405c1.184 0 2.086-.622 2.086-1.85 0-1.006-.71-1.79-1.908-1.79h-2.944Zm1.361 1.199h1.48c.384 0 .65.236.65.606 0 .355-.266.607-.665.607h-1.465v-1.213ZM25.621 15.606v5.326h1.332v-1.894h.562l1.598 1.894h1.627l-1.746-1.968a1.62 1.62 0 0 0 1.465-1.627c0-1.124-.873-1.73-1.864-1.73H25.62Zm1.332 1.184h1.523c.37 0 .637.28.637.562 0 .355-.34.562-.607.562h-1.538V16.79h-.015ZM35.962 20.917v-1.154h2.662c.4 0 .562-.207.562-.444 0-.221-.162-.443-.562-.443h-1.198c-1.05 0-1.627-.636-1.627-1.598 0-.858.532-1.672 2.086-1.672h2.588l-.562 1.199h-2.233c-.43 0-.563.222-.563.444 0 .221.163.458.489.458h1.257c1.169 0 1.672.666 1.672 1.524 0 .932-.563 1.686-1.731 1.686h-2.84ZM40.843 20.917v-1.154h2.663c.4 0 .562-.207.562-.444 0-.221-.163-.443-.562-.443h-1.198c-1.05 0-1.628-.636-1.628-1.598 0-.858.533-1.672 2.086-1.672h2.589l-.562 1.199h-2.234c-.429 0-.562.222-.562.444 0 .221.163.458.488.458h1.258c1.168 0 1.671.666 1.671 1.524 0 .932-.562 1.686-1.73 1.686h-2.84Z" fill="#016FD0"/></g><defs><clipPath id="clip0_637_1677"><rect width="50" height="28.846" rx="5" fill="#fff"/></clipPath></defs></svg>