<svg width="25" height="25" fill="none" xmlns="http://www.w3.org/2000/svg"><path d="M8.286 3.98c.142.038.352.116.464.175.249.127.684.562.767.772l.063.15h13.857V6.64H9.58l-.063.152c-.098.244-.547.669-.845.805-.586.269-1.133.269-1.719 0-.298-.136-.747-.561-.845-.805l-.063-.152H1.563V5.078h4.482l.063-.151c.083-.21.518-.645.767-.772.464-.24.952-.298 1.411-.176ZM17.661 10.62c.142.039.352.117.464.175.249.127.684.562.767.772l.063.151h4.482V13.281h-4.482l-.063.151c-.098.244-.547.67-.845.806-.147.068-.4.146-.567.176-.356.068-.752.005-1.152-.176-.298-.137-.747-.562-.845-.806l-.063-.151H1.563v-1.562H15.42l.063-.152c.083-.21.518-.645.767-.772.464-.239.952-.297 1.411-.175ZM8.286 17.26c.142.04.352.118.464.176.249.127.684.562.767.772l.063.151h13.857V19.922H9.58l-.063.151c-.098.244-.547.669-.845.806-.586.268-1.133.268-1.719 0-.298-.137-.747-.562-.845-.806l-.063-.151H1.563V18.36h4.482l.063-.152c.083-.21.518-.645.767-.772.464-.239.952-.298 1.411-.175Z" fill="#434343"/></svg>