<svg width="125" height="19" fill="none" xmlns="http://www.w3.org/2000/svg"><path d="m9.5 0 3.23 5.83L19 7.257l-4.275 5.031.646 6.712L9.5 16.28 3.629 19l.646-6.712L0 7.258 6.27 5.83 9.5 0ZM36.5 0l3.23 5.83L46 7.257l-4.275 5.031.646 6.712-5.871-2.72L30.629 19l.646-6.712L27 7.258l6.27-1.428L36.5 0Z" fill="#D6DE29"/><path d="m62.5 0 3.57 5.83L73 7.257l-4.725 5.031.714 6.712-6.489-2.72L56.01 19l.715-6.712L52 7.258l6.93-1.428L62.5 0ZM88.5 0l3.23 5.83L98 7.257l-4.275 5.031.646 6.712-5.871-2.72L82.629 19l.646-6.712L79 7.258l6.27-1.428L88.5 0ZM115.5 0l3.229 5.83L125 7.257l-4.275 5.031.646 6.712-5.871-2.72-5.871 2.72.646-6.712L106 7.258l6.271-1.428L115.5 0Z" fill="#626262"/><path d="m109.629 19 5.871-2.72V0l-3.229 5.83L106 7.257l4.275 5.031-.646 6.712Z" fill="#626262"/></svg>