<svg width="130" height="72" fill="none" xmlns="http://www.w3.org/2000/svg"><g clip-path="url('#clip0_637_1642')"><path fill-rule="evenodd" clip-rule="evenodd" d="m98.319 9.898-12.18 12.18c.331.589.589 1.177.847 1.803L97.14 13.725V17.7h2.134v-4.158l11.738 11.738-1.656 1.656.92.92 1.656-1.656 12.805 12.805h-4.084v2.134h4.93l-12.841 12.805-1.546-1.508-.92.92 1.509 1.508-12.584 12.584v-5.04h-2.134v4.856l-6.77-6.733-1.326 1.324 9.236 9.236 30.578-30.577L98.319 9.898Zm0 58.506-.258-.258h.478l-.22.258Z" fill="#BDE031"/><path d="M16.19 20.274h6.513v7.507c0 1.361-.22 2.723-.625 4.01a9.471 9.471 0 0 1-1.95 3.386c-.92 1.03-2.061 1.803-3.349 2.355-1.546.625-3.165.883-4.82.846a13.252 13.252 0 0 1-4.931-.846C5.74 37.017 4.6 36.244 3.68 35.214a8.607 8.607 0 0 1-1.914-3.386 13.884 13.884 0 0 1-.589-4.084V4.121h6.918v6.255h3.422v4.931H8.095v11.738c0 1.693.294 2.98.92 3.9.626.92 1.656 1.362 3.09 1.362 1.4 0 2.43-.442 3.092-1.325.662-.883.993-2.17.993-3.827v-6.88ZM33.153 1.582h-6.991v36.097h6.991V1.582ZM19.39 5.822l-4.605 4.605 4.475 4.475 4.606-4.605L19.39 5.82Z" fill="#BDE031"/><path d="m23.807 64.246.331-1.435c.22-.883.552-1.73.957-2.54.662-1.287 1.472-2.464 2.465-3.495a28.503 28.503 0 0 1 3.312-3.017c1.214-.957 2.502-1.84 3.827-2.723l4.047-2.612c.736-.479 1.435-1.068 1.987-1.73a4.883 4.883 0 0 0 1.104-2.17 2.865 2.865 0 0 0-.037-1.84c-.22-.442-.772-.7-1.619-.7-1.398 0-2.318.883-2.76 2.613l-.625 2.575h-8.794l.11-.772c.368-1.435.846-2.834 1.509-4.195.588-1.214 1.398-2.281 2.428-3.128a11.034 11.034 0 0 1 3.864-1.987 20.796 20.796 0 0 1 5.814-.699c1.545-.036 3.09.148 4.6.552a7.819 7.819 0 0 1 3.053 1.583c.736.662 1.288 1.545 1.509 2.502a6.72 6.72 0 0 1-.074 3.311 9.439 9.439 0 0 1-1.73 3.496 19.028 19.028 0 0 1-2.98 2.98 29.459 29.459 0 0 1-2.76 2.024l-2.759 1.803c-.883.589-1.766 1.214-2.65 1.84a18.42 18.42 0 0 0-2.391 2.097h11.517l-1.361 5.556-21.894.11Z" fill="#fff"/><path d="M98.061 36.906a3.55 3.55 0 0 0-3.57 3.57 3.55 3.55 0 0 0 3.57 3.569 3.549 3.549 0 0 0 3.569-3.57c0-1.95-1.582-3.569-3.569-3.569Z" fill="#D5DA33" stroke="#010101" stroke-width=".25" stroke-miterlimit="10"/><path d="M93.057 40.475c0-1.177.405-2.318 1.177-3.238H79.148l-1.325 5.483h11.922c-.073.147-.184.258-.294.405-.11.147-.258.33-.442.552l-.662.772-.993 1.141c-.405.441-.847.993-1.399 1.582l-1.95 2.171a132.478 132.478 0 0 0-3.017 3.68 44.251 44.251 0 0 0-2.686 3.79 46.771 46.771 0 0 0-2.282 3.9 28.076 28.076 0 0 0-1.766 4.048h9.53a35.456 35.456 0 0 1 1.877-4.6 50.244 50.244 0 0 1 2.17-3.9 41.114 41.114 0 0 1 2.356-3.349c.81-1.03 1.582-2.023 2.355-2.943.772-.883 1.508-1.73 2.244-2.502a81.293 81.293 0 0 0 1.95-2.135c-2.207-.588-3.68-2.612-3.68-4.857Z" fill="#393939"/><path d="m73.445 54.826-1.288 5.262h-1.693l-1.14 4.673h-8.831l1.14-4.673H48.644l1.14-4.6L62.7 37.238h13.357L71.79 54.825h1.656Zm-15.27 0h4.746l3.054-12.51-7.8 12.51Z" fill="#fff"/><path d="M82.938 25.5a7.4 7.4 0 0 0-3.238-2.355 31.308 31.308 0 0 0-3.606-1.104c-1.361-.332-2.796-.736-4.305-1.141a13.277 13.277 0 0 1-3.238-1.214 1.925 1.925 0 0 1-1.067-1.803c-.037-.736.404-1.399 1.067-1.693a7.85 7.85 0 0 1 3.054-.515c1.619 0 2.796.257 3.532.773.736.515 1.215 1.435 1.399 2.723h6.696c-.183-2.87-1.177-5.041-2.98-6.513-1.803-1.472-4.636-2.208-8.463-2.208-1.73-.037-3.459.147-5.115.589a10.65 10.65 0 0 0-3.459 1.619 6.514 6.514 0 0 0-1.95 2.502 8.283 8.283 0 0 0-.589 3.127c0 1.141.258 2.245.736 3.275a6.562 6.562 0 0 0 2.613 2.686c1.067.663 2.208 1.215 3.422 1.546 1.361.441 3.128.92 5.372 1.435 1.03.257 2.024.589 2.98 1.03.81.331 1.288 1.104 1.252 1.987.037.92-.515 1.803-1.398 2.134-1.03.442-2.135.626-3.275.626-1.73 0-3.054-.331-4.011-1.03-.957-.663-1.509-1.73-1.435-2.907H53.133c-.257.92-1.03 2.391-1.913 2.907-.92.515-1.987.809-3.017.772a5.232 5.232 0 0 1-4.158-1.766c-1.067-1.177-1.656-2.76-1.73-4.783H60.53c0-5.262-1.03-9.2-3.127-11.812-2.098-2.613-5.188-3.9-9.236-3.9-1.84-.037-3.68.294-5.41.956a10.95 10.95 0 0 0-4.01 2.723c-1.104 1.215-1.987 2.686-2.502 4.232a16.486 16.486 0 0 0-.846 5.52c0 4.82 1.104 8.425 3.348 10.817.92-.073 1.913-.147 2.944-.147 1.73-.037 3.459.184 5.114.626 1.399.367 2.687 1.067 3.79 1.987.295.257.552.515.773.81a11.397 11.397 0 0 0 4.563-1.914c1.693-1.215 3.127-3.386 4.01-5.63.332 1.913 1.362 3.643 2.87 4.894h18.951c1.545-1.472 2.318-3.422 2.318-5.888 0-1.619-.368-2.98-1.14-3.974ZM44.34 17.624a5.005 5.005 0 0 1 3.643-1.545c.662 0 1.361.147 1.987.368.625.22 1.214.588 1.73 1.067.515.515.92 1.14 1.214 1.84.33.809.478 1.692.515 2.538H42.647c.11-1.84.699-3.238 1.692-4.268Z" fill="#BDE031"/></g><defs><clipPath id="clip0_637_1642"><path fill="#fff" d="M0 0h130v71.642H0z"/></clipPath></defs></svg>