<svg width="50" height="29" fill="none" xmlns="http://www.w3.org/2000/svg"><g clip-path="url('#clip0_637_1669')"><path d="M50 5.03a5 5 0 0 0-5-5H5.015a5 5 0 0 0-5 5v18.816a5 5 0 0 0 5 5H45a5 5 0 0 0 5-5V5.029Z" fill="#fff"/><path d="M40.13 18.042v-.349h-.116l-.116.233-.116-.233h-.116v.349h.058v-.29l.116.232h.058l.116-.233v.291h.117Zm-.58 0v-.29h.116v-.059h-.291v.058h.116v.291h.058Z" fill="#0099DF"/><path d="M29.097 19.672h-8.37V4.604h8.37v15.068Z" fill="#6C6BBD"/><path d="M21.262 12.145c0-3.08 1.453-5.755 3.662-7.557a9.504 9.504 0 0 0-5.93-2.034c-5.29 0-9.591 4.301-9.591 9.591 0 5.29 4.301 9.592 9.591 9.592a9.628 9.628 0 0 0 5.93-2.035c-2.21-1.802-3.662-4.534-3.662-7.557Z" fill="#EB001B"/><path d="M40.41 12.145c0 5.29-4.302 9.592-9.592 9.592a9.628 9.628 0 0 1-5.93-2.035 9.622 9.622 0 0 0 3.663-7.557c0-3.08-1.453-5.755-3.662-7.557a9.504 9.504 0 0 1 5.93-2.034 9.564 9.564 0 0 1 9.59 9.591Z" fill="#0099DF"/><path d="M31.97 23.918c.115 0 .29 0 .406.058l-.174.524c-.117-.059-.233-.059-.35-.059-.348 0-.522.233-.522.64v1.453h-.582v-2.558h.523v.291c.175-.174.35-.349.698-.349Zm-2.094.582h-.93v1.162c0 .233.117.407.35.407.115 0 .348-.058.464-.116l.174.465c-.174.116-.464.174-.697.174-.64 0-.872-.348-.872-.93V24.5h-.523v-.524h.523v-.755h.581v.755h.93v.524Zm-7.033.523c.058-.349.29-.64.697-.64.349 0 .582.233.64.64h-1.337Zm1.86.232c0-.814-.523-1.337-1.221-1.337-.756 0-1.279.523-1.279 1.337s.523 1.337 1.279 1.337c.407 0 .756-.116 1.046-.348l-.29-.407c-.233.174-.465.29-.756.29-.349 0-.697-.174-.756-.64h1.919c.058-.116.058-.174.058-.232Zm2.441-.64a1.505 1.505 0 0 0-.813-.232c-.291 0-.466.117-.466.291s.175.232.407.232l.233.059c.581.058.872.29.872.755s-.407.814-1.163.814c-.407 0-.814-.116-1.104-.349l.232-.407c.175.117.465.291.872.291s.581-.116.581-.29c0-.117-.116-.233-.465-.291l-.232-.058c-.581-.059-.872-.35-.872-.756 0-.523.407-.814 1.046-.814.407 0 .756.116 1.047.29l-.175.466Zm6.802-.174c-.117 0-.233 0-.291.059a.803.803 0 0 0-.233.174c-.058.058-.116.174-.174.232-.058.117-.058.233-.058.35 0 .115 0 .232.058.348a.8.8 0 0 0 .174.233c.059.058.175.116.233.174a.632.632 0 0 0 .29.058c.059 0 .233 0 .291-.058.116-.058.175-.116.233-.174.058-.059.116-.175.174-.233a.738.738 0 0 0 .058-.349c0-.116 0-.232-.058-.349-.058-.116-.116-.174-.174-.232-.059-.058-.175-.116-.233-.174-.058-.059-.174-.059-.29-.059Zm0-.523c.174 0 .406.058.523.117.174.058.29.174.465.29.116.116.232.29.29.407.059.174.117.349.117.523 0 .175-.058.349-.117.523-.058.175-.174.291-.29.407-.116.117-.29.233-.465.29-.175.059-.349.117-.523.117a1.39 1.39 0 0 1-.524-.116c-.174-.058-.29-.174-.407-.29a1.769 1.769 0 0 1-.29-.408c-.058-.174-.116-.348-.116-.523 0-.174.058-.349.116-.523.058-.174.174-.29.29-.407.117-.116.291-.232.407-.29.175-.059.35-.117.524-.117Zm-14.359 1.337c0-.465.291-.814.756-.814s.756.35.756.814c0 .465-.291.814-.756.814s-.756-.349-.756-.814Zm2.035 0v-1.279h-.581v.291c-.175-.232-.465-.349-.814-.349-.698 0-1.28.582-1.28 1.337 0 .756.582 1.337 1.28 1.337.349 0 .64-.116.814-.348v.29h.58v-1.279Zm-3.081 1.279v-1.57c0-.58-.407-.988-.988-.988-.35 0-.64.117-.872.465a.928.928 0 0 0-.814-.465c-.29 0-.523.059-.756.407v-.29h-.581v2.557h.581v-1.395c0-.465.233-.697.64-.697.348 0 .581.232.581.697v1.395h.581v-1.395c0-.465.233-.697.64-.697.407 0 .581.232.581.697v1.395h.407v-.116ZM35.957 26.34v.059h.116c-.058-.059-.058-.059-.116-.059Zm.058-.058h.058V26.4h-.058l.058.116h-.058l-.058-.116v.116h-.058v-.233h.116Zm0 .35h.058s.058 0 .058-.059l.058-.058v-.116s0-.059-.058-.059l-.058-.058h-.116s-.058 0-.058.058l-.058.059v.116s0 .058.058.058l.058.058h.058Zm0-.466h.116c.058 0 .058.058.058.058l.058.058v.233c0 .058-.058.058-.058.058l-.058.058H35.9c-.058 0-.058-.058-.058-.058l-.059-.058v-.233c0-.058.059-.058.059-.058l.058-.058h.116Z" fill="#231F20"/></g><defs><clipPath id="clip0_637_1669"><path fill="#fff" d="M0 0h50v28.846H0z"/></clipPath></defs></svg>