<svg width="50" height="29" fill="none" xmlns="http://www.w3.org/2000/svg"><g clip-path="url('#clip0_637_1694')"><path d="M49.985 5.03a5 5 0 0 0-5-5H5a5 5 0 0 0-5 5v18.816a5 5 0 0 0 5 5h39.985a5 5 0 0 0 5-5V5.029Z" fill="#fff"/><path fill-rule="evenodd" clip-rule="evenodd" d="M39.842 12.412c0 5.303-4.297 9.6-9.582 9.6-5.286 0-9.582-4.297-9.582-9.6 0-5.304 4.278-9.6 9.582-9.6 5.303 0 9.582 4.296 9.582 9.6Z" fill="#F79F1A"/><path fill-rule="evenodd" clip-rule="evenodd" d="M28.012 12.412c0 5.303-4.296 9.6-9.582 9.6-5.285 0-9.582-4.297-9.582-9.6 0-5.304 4.28-9.6 9.582-9.6 5.304 0 9.582 4.296 9.582 9.6Z" fill="#EA001B"/><path fill-rule="evenodd" clip-rule="evenodd" d="M24.345 4.843a9.625 9.625 0 0 0-3.667 7.568 9.625 9.625 0 0 0 3.667 7.569 9.625 9.625 0 0 0 3.667-7.569 9.625 9.625 0 0 0-3.667-7.568Z" fill="#FF5F01"/><path d="M39.833 17.498v-.343h-.091l-.114.229-.114-.229h-.092v.343h.069v-.252l.091.229h.069l.09-.229v.252h.092Zm-.57 0v-.274h.114v-.069h-.297v.069h.114v.274h.068Z" fill="#F79F1A"/><path d="M10.97 26.776h-.54V24.24h.54v.306s.467-.378.755-.378c.54.018.863.467.863.467s.27-.467.845-.467c.88 0 1.006.809 1.006.809v1.798h-.52v-1.582s0-.486-.558-.486c-.594 0-.647.486-.647.486v1.582h-.54v-1.582s-.054-.504-.54-.504c-.646 0-.646.504-.646.504l-.018 1.582ZM27.527 24.169c-.27 0-.755.378-.755.378v-.306h-.54v2.535h.54l-.018-1.582s.018-.504.647-.504c.126 0 .216.036.288.072l.18-.485a.553.553 0 0 0-.342-.108ZM35.185 24.169c-.27 0-.755.378-.755.378v-.306h-.539v2.535h.54l-.019-1.582s.019-.504.648-.504c.125 0 .215.036.287.072l.18-.485a.553.553 0 0 0-.342-.108ZM16.183 24.15c-.809 0-1.24.738-1.24 1.349 0 .629.485 1.348 1.276 1.348.45 0 .827-.342.827-.342v.252h.54v-2.535h-.54v.324s-.36-.396-.863-.396Zm.108.522c.431 0 .791.377.791.845 0 .467-.36.845-.79.845-.432 0-.792-.378-.792-.845 0-.468.36-.845.791-.845ZM31.806 24.15c-.81 0-1.24.738-1.24 1.349 0 .629.485 1.348 1.276 1.348.45 0 .827-.342.827-.342v.252h.539v-2.535h-.54v.324c-.017 0-.359-.396-.862-.396Zm.108.522c.43 0 .79.377.79.845 0 .467-.36.845-.79.845-.432 0-.792-.378-.792-.845 0-.468.36-.845.792-.845ZM36.947 24.15c-.809 0-1.24.738-1.24 1.349 0 .63.485 1.348 1.276 1.348.45 0 .827-.341.827-.341v.251h.54v-3.541h-.54v1.33c-.018 0-.36-.395-.863-.395Zm.108.522c.431 0 .791.377.791.845 0 .467-.36.845-.79.845-.432 0-.792-.378-.792-.845 0-.468.36-.845.791-.845ZM19.203 26.848c-.557 0-1.06-.342-1.06-.342l.233-.36s.486.216.827.216c.234 0 .612-.072.612-.305 0-.234-.63-.306-.63-.306s-.952-.018-.952-.81c0-.503.485-.808 1.096-.808.36 0 1.007.305 1.007.305l-.27.414s-.503-.198-.773-.216c-.233 0-.503.108-.503.306 0 .54 1.582-.036 1.582 1.043 0 .737-.647.863-1.169.863ZM21.253 23.485v.738h-.468v.539h.468v1.276s-.036.863.88.863c.253 0 .756-.198.756-.198l-.216-.557s-.198.162-.431.162c-.432-.018-.414-.288-.414-.288v-1.276h.881v-.54h-.88v-.719h-.576ZM24.47 24.186c-.88 0-1.312.72-1.312 1.349 0 .647.396 1.366 1.367 1.366.413 0 .989-.36.989-.36l-.252-.43s-.396.287-.737.287c-.701 0-.737-.683-.737-.683h1.851c.018-.018.144-1.529-1.168-1.529Zm-.071.504h.072c.647 0 .647.611.647.611h-1.312c-.018 0-.036-.575.593-.611ZM30.008 26.093l.252.503s-.396.252-.845.252c-.917 0-1.42-.684-1.42-1.349 0-1.024.808-1.33 1.366-1.33.503 0 .935.287.935.287l-.288.504s-.162-.27-.665-.27c-.486 0-.755.432-.755.827 0 .45.305.845.755.845.36 0 .665-.27.665-.27ZM39.452 26.429a.278.278 0 0 0-.195.073.222.222 0 0 0-.074.171c0 .074.025.123.074.172a.278.278 0 0 0 .195.073.278.278 0 0 0 .196-.073.222.222 0 0 0 .073-.172.222.222 0 0 0-.073-.17.278.278 0 0 0-.196-.074Zm0 .44c-.049 0-.098-.024-.146-.049-.05-.049-.05-.073-.05-.147 0-.049.025-.097.05-.146.048-.05.073-.05.146-.05.05 0 .098.025.147.05.05.049.05.073.05.146 0 .05-.026.098-.05.147-.024.05-.073.05-.147.05Zm.025-.318h-.098v.245h.049v-.098h.024l.074.098h.048l-.073-.098c.025 0 .05 0 .05-.025 0-.024.023-.024.023-.049 0-.024 0-.048-.024-.048-.024-.025-.049-.025-.073-.025Zm0 .049h.024v.049H39.427v-.073h.05v.024Z" fill="#000"/></g><defs><clipPath id="clip0_637_1694"><path fill="#fff" d="M0 0h50v28.846H0z"/></clipPath></defs></svg>