<svg width="50" height="29" fill="none" xmlns="http://www.w3.org/2000/svg"><g clip-path="url('#clip0_637_1665')"><path d="M49.941 5.03a5 5 0 0 0-5-5H5.103a5 5 0 0 0-5 5v18.73a5 5 0 0 0 5 5h39.838a5 5 0 0 0 5-5V5.03Z" fill="#fff"/><path fill-rule="evenodd" clip-rule="evenodd" d="m21.032 8.407-2.035 12.478h3.245l2.035-12.478h-3.245Zm-4.764 0-3.097 8.584-.369-1.844-.073-.413a10.262 10.262 0 0 0-2.876-3.658 13.494 13.494 0 0 0-1.446-1.003l2.817 10.812h3.393l5.147-12.478h-3.495Zm12.685 3.466c0-1.416 3.17-1.224 4.557-.457l.458-2.685s-1.431-.545-2.92-.545c-1.608 0-5.443.708-5.443 4.13 0 3.23 4.498 3.259 4.498 4.955 0 1.696-4.026 1.386-5.354.325l-.486 2.802s1.445.708 3.672.708c2.213 0 5.56-1.15 5.56-4.277-.014-3.245-4.542-3.555-4.542-4.956Zm13.26-3.466h-2.611c-1.21 0-1.505.929-1.505.929l-4.852 11.549h3.392l.679-1.859h4.13l.383 1.859h2.98L42.211 8.407Zm-3.968 8.068 1.71-4.676.96 4.676h-2.67Z" fill="#005BAC"/><path fill-rule="evenodd" clip-rule="evenodd" d="M11.755 9.587s-.133-1.121-1.563-1.121H4.97l-.06.206s2.508.517 4.912 2.42c2.3 1.828 3.053 4.114 3.053 4.114l-1.12-5.62Z" fill="#F6AC1D"/></g><defs><clipPath id="clip0_637_1665"><path fill="#fff" d="M0 0h50v28.761H0z"/></clipPath></defs></svg>