<svg width="32" height="32" fill="none" xmlns="http://www.w3.org/2000/svg"><g clip-path="url('#clip0_637_1734')"><path d="M31.363 8.248a4.023 4.023 0 0 0-2.83-2.848c-2.501-.672-12.501-.672-12.501-.672s-10 0-12.502.672A4.022 4.022 0 0 0 .7 8.248C.033 10.76.033 16 .033 16s0 5.24.669 7.753A4.022 4.022 0 0 0 3.53 26.6c2.502.673 12.502.673 12.502.673s10 0 12.502-.673a4.022 4.022 0 0 0 2.829-2.847c.669-2.513.669-7.753.669-7.753s0-5.24-.67-7.752Z" fill="#BDE031"/><path d="M12.759 20.759v-9.517L21.123 16l-8.364 4.759Z" fill="#393939"/></g><defs><clipPath id="clip0_637_1734"><path fill="#fff" d="M0 0h32v32H0z"/></clipPath></defs></svg>